<svg width="555" height="723" viewBox="0 0 555 723" fill="none" xmlns="http://www.w3.org/2000/svg">
<path d="M12.6765 54.0022L26.7979 42.3079C30.1602 39.5236 34.3888 38 38.7542 38H40.1073C49.713 38 57.5 30.213 57.5 20.6073C57.5 11.1137 65.1127 3.374 74.605 3.21692L233.421 0.588757C252.975 0.265171 269 16.0274 269 35.584V178.063C269 187.013 265.572 195.622 259.42 202.122L249.429 212.679C245.006 217.352 238.854 220 232.42 220H223C215.268 220 209 226.268 209 234C209 241.732 215.268 248 223 248H233.179C239.178 248 244.963 250.23 249.409 254.257L257.495 261.58C264.821 268.215 269 277.638 269 287.522V478C269 497.33 253.33 513 234 513H72.25C64.1038 513 57.5 506.396 57.5 498.25C57.5 490.104 50.8962 483.5 42.75 483.5H38.9645C34.4747 483.5 30.1376 481.87 26.7587 478.914L11.9523 465.958C4.35682 459.312 0 449.711 0 439.618V80.9589C0 70.5339 4.64724 60.6515 12.6765 54.0022Z" fill="#579FEB"/>
<path d="M89 152.735V103.606C89 89.8256 96.2531 77.0622 108.092 70.0095C114.145 66.4036 121.06 64.5 128.106 64.5H137.038C144.011 64.5 150.868 66.28 156.961 69.6715C169.948 76.9009 178 90.5984 178 105.462V152.886C178 167.537 170.473 181.161 158.07 188.961C151.275 193.233 143.412 195.5 135.386 195.5H131.765C122.408 195.5 113.309 192.431 105.863 186.763C95.2376 178.675 89 166.088 89 152.735Z" fill="white"/>
<path d="M90 429.422V321.071C90 307.982 95.393 295.471 104.909 286.485L107.231 284.293C114.57 277.361 124.283 273.5 134.378 273.5C144.013 273.5 153.316 277.018 160.54 283.393L163.313 285.839C173.923 295.201 180 308.67 180 322.82V431.226C180 445.119 174.47 458.44 164.63 468.248L159.493 473.369C152.984 479.857 144.169 483.5 134.98 483.5C124.642 483.5 114.842 478.894 108.245 470.934L102.44 463.929C94.3999 454.227 90 442.022 90 429.422Z" fill="white"/>
<path d="M542.323 669.498L528.202 681.192C524.84 683.976 520.611 685.5 516.246 685.5H514.893C505.287 685.5 497.5 693.287 497.5 702.893C497.5 712.386 489.887 720.126 480.395 720.283L321.579 722.911C302.025 723.235 286 707.473 286 687.916V545.436C286 536.487 289.428 527.878 295.58 521.378L305.571 510.821C309.994 506.148 316.146 503.5 322.58 503.5H332C339.732 503.5 346 497.232 346 489.5C346 481.768 339.732 475.5 332 475.5H321.821C315.822 475.5 310.037 473.27 305.591 469.243L297.505 461.92C290.179 455.285 286 445.862 286 435.978V245.5C286 226.17 301.67 210.5 321 210.5H482.75C490.896 210.5 497.5 217.104 497.5 225.25C497.5 233.396 504.104 240 512.25 240H516.036C520.525 240 524.862 241.63 528.241 244.586L543.048 257.542C550.643 264.188 555 273.789 555 283.882V642.541C555 652.966 550.353 662.849 542.323 669.498Z" fill="#2815FF"/>
<path d="M466 570.765V619.894C466 633.674 458.747 646.438 446.908 653.49C440.855 657.096 433.94 659 426.894 659H417.962C410.989 659 404.132 657.22 398.039 653.828C385.052 646.599 377 632.902 377 618.038V570.614C377 555.963 384.527 542.339 396.93 534.539C403.725 530.267 411.588 528 419.614 528H423.235C432.592 528 441.691 531.069 449.137 536.737C459.762 544.825 466 557.412 466 570.765Z" fill="white"/>
<path d="M465 294.078V402.429C465 415.518 459.607 428.028 450.091 437.015L447.769 439.207C440.43 446.139 430.717 450 420.622 450C410.987 450 401.684 446.482 394.46 440.107L391.687 437.661C381.077 428.298 375 414.83 375 400.68V292.274C375 278.381 380.53 265.06 390.37 255.252L395.507 250.131C402.016 243.643 410.831 240 420.02 240C430.358 240 440.158 244.606 446.755 252.566L452.56 259.571C460.6 269.273 465 281.478 465 294.078Z" fill="white"/>
</svg>
