<svg width="100" height="100" viewBox="0 0 24 24" fill="none" xmlns="http://www.w3.org/2000/svg">
    <path d="M12 2C6.48 2 2 6.48 2 12s4.48 10 10 10 10-4.48 10-10S17.52 2 12 2zm1 17.93c-2.83.48-5.48-.5-7.07-2.07-1.59-1.59-2.55-3.74-2.07-6.07H5c.55 0 1-.45 1-1s-.45-1-1-1H3.93c.48-2.33 1.44-4.48 3.07-6.07C8.52 4.57 10.67 3.61 13 3.93V5c0 .55.45 1 1 1s1-.45 1-1V3.93c2.33.48 4.48 1.44 6.07 3.07 1.59 1.59 2.55 3.74 2.07 6.07H19c-.55 0-1 .45-1 1s.45 1 1 1h1.07c-.48 2.33-1.44 4.48-3.07 6.07-1.59 1.59-3.74 2.55-6.07 2.07V19c0-.55-.45-1-1-1s-1 .45-1 1v1.93z" fill="#667085"/>
    <path d="M12 8c-2.21 0-4 1.79-4 4s1.79 4 4 4 4-1.79 4-4-1.79-4-4-4zm0 6c-1.1 0-2-.9-2-2s.9-2 2-2 2 .9 2 2-.9 2-2 2z" fill="#667085"/>
</svg>